<svg xmlns="http://www.w3.org/2000/svg" xmlns:xlink="http://www.w3.org/1999/xlink" version="1.1" width="256" height="256" viewBox="0 0 256 256" xml:space="preserve">
<desc>Created with Fabric.js 1.7.22</desc>
<defs>
</defs>
<g transform="translate(128 128) scale(0.72 0.72)" style="">
	<g style="stroke: none; stroke-width: 0; stroke-dasharray: none; stroke-linecap: butt; stroke-linejoin: miter; stroke-miterlimit: 10; fill: none; fill-rule: nonzero; opacity: 1;" transform="translate(-175.05 -175.05000000000004) scale(3.89 3.89)" >
	<path d="M 14.347 59.348 c -0.384 0 -0.768 -0.146 -1.061 -0.439 L 0.439 46.061 c -0.586 -0.586 -0.586 -1.536 0 -2.121 l 12.847 -12.847 c 0.586 -0.586 1.535 -0.586 2.121 0 c 0.586 0.585 0.586 1.536 0 2.121 L 3.621 45 l 11.787 11.787 c 0.586 0.586 0.586 1.535 0 2.121 C 15.115 59.201 14.731 59.348 14.347 59.348 z" style="stroke: none; stroke-width: 1; stroke-dasharray: none; stroke-linecap: butt; stroke-linejoin: miter; stroke-miterlimit: 10; fill: rgb(29,29,27); fill-rule: nonzero; opacity: 1;" transform=" matrix(1 0 0 1 0 0) " stroke-linecap="round" />
	<path d="M 88.5 46.5 h -87 C 0.671 46.5 0 45.829 0 45 s 0.671 -1.5 1.5 -1.5 h 87 c 0.828 0 1.5 0.671 1.5 1.5 S 89.328 46.5 88.5 46.5 z" style="stroke: none; stroke-width: 1; stroke-dasharray: none; stroke-linecap: butt; stroke-linejoin: miter; stroke-miterlimit: 10; fill: rgb(29,29,27); fill-rule: nonzero; opacity: 1;" transform=" matrix(1 0 0 1 0 0) " stroke-linecap="round" />
	<path d="M 75.652 59.348 c -0.384 0 -0.768 -0.146 -1.061 -0.439 c -0.586 -0.586 -0.586 -1.535 0 -2.121 L 86.379 45 L 74.592 33.213 c -0.586 -0.585 -0.586 -1.535 0 -2.121 s 1.535 -0.586 2.121 0 l 12.848 12.847 C 89.842 44.221 90 44.602 90 45 s -0.158 0.779 -0.439 1.061 L 76.713 58.908 C 76.42 59.201 76.036 59.348 75.652 59.348 z" style="stroke: none; stroke-width: 1; stroke-dasharray: none; stroke-linecap: butt; stroke-linejoin: miter; stroke-miterlimit: 10; fill: rgb(29,29,27); fill-rule: nonzero; opacity: 1;" transform=" matrix(1 0 0 1 0 0) " stroke-linecap="round" />
</g>
</g>
</svg>